# Alias OBJ Model File
# Exported from SketchUp, (c) 2000-2012 Trimble Navigation Limited
# File units = meters

mtllib circle.mtl

g Mesh1 Model

usemtl FrontColor
v 11.6861 -2.81997e-18 -7.30615
vt -460.083 287.644
vn 0 -1 -0
v 11.6283 -2.81997e-18 -6.45403
vt -457.809 254.096
v 11.3838 0 -6.89863
vt -448.182 271.599
f 1/1/1 2/2/1 3/3/1

v 11.9692 0 -5.88614
vt -471.23 231.738
f 4/4/1 2/2/1 1/1/1

v 11.5434 0 -6.03177
vt -454.463 237.471
f 4/4/1 5/5/1 2/2/1

v 11.5343 0 -5.00912
vt -454.106 197.209
f 6/6/1 5/5/1 4/4/1

v 11.1606 0 -5.26001
vt -439.395 207.087
f 6/6/1 7/7/1 5/5/1

v 10.8872 0 -4.27456
vt -428.63 168.29
f 8/8/1 7/7/1 6/6/1

v 10.5912 0 -4.61361
vt -416.976 181.638
f 8/8/1 9/9/1 7/7/1

v 10.072 0 -3.7325
vt -396.536 146.949
f 10/10/1 9/9/1 8/8/1

v 9.87385 0 -4.13661
vt -388.734 162.859
f 10/10/1 11/11/1 9/9/1

v 9.14432 0 -3.4199
vt -360.013 134.642
f 12/12/1 11/11/1 10/10/1

v 9.0575 0 -3.86153
vt -356.595 152.029
f 12/12/1 13/13/1 11/11/1

v 8.62764 -2.81997e-18 -3.83432
vt -339.671 150.958
f 12/12/1 14/14/1 13/13/1

v 8.22011 -2.81997e-18 -4.13661
vt -323.626 162.859
f 12/12/1 15/15/1 14/14/1

v 8.16733 0 -3.35806
vt -321.548 132.207
f 16/16/1 15/15/1 12/12/1

v 7.77551 -2.81997e-18 -3.89209
vt -306.122 153.232
f 16/16/1 17/17/1 15/15/1

v 7.35325 0 -3.97706
vt -289.498 156.577
f 16/16/1 18/18/1 17/17/1

v 7.20762 0 -3.55119
vt -283.765 139.811
f 19/19/1 18/18/1 16/16/1

v 6.58149 0 -4.3598
vt -259.114 171.646
f 19/19/1 20/20/1 18/18/1

v 6.3306 0 -3.98613
vt -249.236 156.934
f 21/21/1 20/20/1 19/19/1

v 5.93509 0 -4.92924
vt -233.665 194.065
f 21/21/1 22/22/1 20/20/1

v 5.59604 0 -4.63324
vt -220.316 182.411
f 23/23/1 22/22/1 21/21/1

v 5.45809 0 -5.64658
vt -214.886 222.306
f 23/23/1 24/24/1 22/22/1

v 5.18302 0 -6.46293
vt -204.056 254.446
f 23/23/1 25/25/1 24/24/1

v 5.05399 0 -5.44842
vt -198.976 214.505
f 26/26/1 25/25/1 23/23/1

v 5.15581 -2.81997e-18 -6.8928
vt -202.984 271.37
f 25/25/1 26/26/1 27/27/1

v 5.30761 0 -9.18983
vt -208.961 361.804
f 26/26/1 28/28/1 27/27/1

v 4.87267 0 -8.31281
vt -191.838 327.276
f 26/26/1 29/29/1 28/28/1

v 4.74139 0 -6.37611
vt -186.669 251.028
f 30/30/1 29/29/1 26/26/1

v 4.67955 0 -7.35311
vt -184.234 289.492
f 29/29/1 30/30/1 31/31/1

vt -277.276 134.572
vn -0.741674 0.668874 -0.0502778
vt -238.735 134.572
vn -0.729415 0.668874 0.143395
v 4.85616 0.13 -6.39868
vt -239.336 141.431
v 4.79625 0.13 -7.34519
vt -276.675 141.431
f 31/32/2 30/33/3 32/34/3 33/35/2 

vt -178.279 171.119
vt -139.737 171.119
vn -0.667447 0.668874 0.327295
v 5.15901 0.13 -5.49992
vt -140.339 177.978
vt -177.678 177.978
f 30/36/3 26/37/4 34/38/4 32/39/3 

vt -68.4454 189.365
vt -29.9042 189.365
vn -0.559994 0.668874 0.488891
v 5.68415 0.13 -4.71017
vt -30.5053 196.223
vt -67.8443 196.223
f 26/40/4 23/41/5 35/42/5 34/43/4 

vt 44.7391 188.065
vt 83.2803 188.065
vn -0.414379 0.668874 0.61717
v 6.39581 0.13 -4.08324
vt 82.6792 194.923
vt 45.3402 194.923
f 23/44/5 21/45/6 36/46/6 35/47/5 

vt 153.561 167.308
vt 192.103 167.308
vn -0.240524 0.668874 0.703389
v 7.24547 0.13 -3.66187
vt 191.501 174.166
vt 154.162 174.166
f 21/48/6 19/49/7 37/50/7 36/51/6 

vt 250.605 128.509
vt 289.147 128.509
vn -0.0502778 0.668874 0.741674
v 8.17524 0.13 -3.47477
vt 288.546 135.367
vt 251.207 135.367
f 19/52/7 16/53/8 38/54/8 37/55/7 

vt 329.258 74.3116
vt 367.799 74.3116
vn 0.143395 0.668874 0.729415
v 9.12176 0.13 -3.53468
vt 367.198 81.1703
vt 329.859 81.1703
f 16/56/8 12/57/9 39/58/9 38/59/8 

vt 384.159 8.4099
vt 422.7 8.4099
vn 0.327295 0.668874 0.667447
v 10.0205 0.13 -3.83753
vt 422.099 15.2686
vt 384.76 15.2686
f 12/60/9 10/61/10 40/62/10 39/63/9 

vt 411.567 -64.7054
vt 450.108 -64.7054
vn 0.488891 0.668874 0.559994
v 10.8103 0.13 -4.36267
vt 449.507 -57.8467
vt 412.168 -57.8467
f 10/64/10 8/65/11 41/66/11 40/67/10 

vt 409.613 -140.051
vt 448.155 -140.051
vn 0.61717 0.668874 0.414379
v 11.4372 0.13 -5.07432
vt 447.554 -133.193
vt 410.215 -133.193
f 8/68/11 6/69/12 42/70/12 41/71/11 

vt 378.433 -212.494
vt 416.974 -212.494
vn 0.703389 0.668874 0.240524
v 11.8586 0.13 -5.92399
vt 416.373 -205.635
vt 379.034 -205.635
f 6/72/12 4/73/13 43/74/13 42/75/12 

vt 320.149 -277.095
v 12.1624 0 -6.84585
vt 358.69 -277.095
vn 0.741674 0.668874 0.0502778
v 12.0457 0.13 -6.85376
vt 358.089 -270.237
vt 320.75 -270.237
f 4/76/13 44/77/14 45/78/14 43/79/13 

v 12.1005 0 -7.82284
vt -476.399 307.986
vt -478.834 269.522
f 4/4/1 46/80/1 44/81/1

v 11.7879 0 -8.75053
vt -464.092 344.509
f 4/4/1 47/82/1 46/80/1

f 4/4/1 1/1/1 47/82/1

v 11.6589 0 -7.73602
vt -459.012 304.568
f 48/83/1 47/82/1 1/1/1

v 11.3838 0 -8.55237
vt -448.182 336.708
f 49/84/1 47/82/1 48/83/1

v 11.2459 0 -9.56571
vt -442.751 376.603
f 49/84/1 50/85/1 47/82/1

v 10.9068 0 -9.26971
vt -429.403 364.949
f 51/86/1 50/85/1 49/84/1

v 10.5113 0 -10.2128
vt -413.831 402.08
f 51/86/1 52/87/1 50/85/1

v 10.2604 0 -9.83915
vt -403.954 387.368
f 53/88/1 52/87/1 51/86/1

v 9.63429 0 -10.6478
vt -379.303 419.203
f 53/88/1 54/89/1 52/87/1

v 9.48867 0 -10.2219
vt -373.57 402.437
f 55/90/1 54/89/1 53/88/1

v 9.06641 -2.81997e-18 -10.3069
vt -356.945 405.782
f 56/91/1 54/89/1 55/90/1

v 8.67459 0 -10.8409
vt -341.519 426.807
f 56/91/1 57/92/1 54/89/1

v 8.62181 0 -10.0623
vt -339.441 396.155
f 58/93/1 57/92/1 56/91/1

v 8.21428 -2.81997e-18 -10.3646
vt -323.397 408.056
f 59/94/1 57/92/1 58/93/1

v 7.78442 0 -10.3374
vt -306.473 406.985
f 60/95/1 57/92/1 59/94/1

v 7.6976 0 -10.779
vt -303.055 424.372
f 60/95/1 61/96/1 57/92/1

v 6.96806 0 -10.0623
vt -274.333 396.155
f 62/97/1 61/96/1 60/95/1

v 6.7699 0 -10.4664
vt -266.532 412.065
f 62/97/1 63/98/1 61/96/1

v 6.25072 0 -9.58535
vt -246.092 377.376
f 64/99/1 63/98/1 62/97/1

v 5.95472 0 -9.9244
vt -234.438 390.724
f 64/99/1 65/100/1 63/98/1

v 5.68128 0 -8.93894
vt -223.673 351.927
f 66/101/1 65/100/1 64/99/1

f 66/101/1 28/28/1 65/100/1

v 5.29855 0 -8.16719
vt -208.604 321.543
f 67/102/1 28/28/1 66/101/1

v 5.21357 -2.81997e-18 -7.74492
vt -205.259 304.918
f 68/103/1 28/28/1 67/102/1

f 27/27/1 28/28/1 68/103/1

v 5.45809 0 -7.30033
vt -214.886 287.414
f 69/104/1 27/27/1 68/103/1

vt 358.861 2.20889e-16
vn 0.803165 -1.6249e-16 0.595757
v 5.15581 0.13 -6.8928
vt 338.884 5.11811
vt 338.884 1.09867e-16
f 69/105/15 70/106/15 27/107/15

vt 91.302 -335.459
vn 0.200669 0.966589 -0.159489
vt 108.898 -315.492
vt 86.1464 -315.492
f 69/108/16 33/109/16 70/110/16

vt 353.994 56.9504
vn 0.177309 0.966589 0.185112
v 5.21357 0.13 -7.74492
vt 359.149 76.9173
vt 336.398 76.9173
f 69/111/17 71/112/17 33/113/17

vt 168.259 5.11811
vn 0.87622 -1.48943e-16 -0.481912
vt 148.282 4.86738e-14
vt 168.259 4.85628e-14
f 71/114/18 69/115/18 68/116/18

vt 339.42 -1.11022e-16
vn 0.980347 -1.10875e-30 0.197283
vt 356.377 1.56411e-28
vn 0.946209 -5.5916e-31 0.323556
v 5.29855 0.13 -8.16719
vt 356.377 5.11811
vt 339.42 5.11811
f 68/117/19 67/118/20 72/119/20 71/120/19 

vt 380.746 0
vt 414.661 0
vn 0.830225 0 0.557428
v 5.68128 0.13 -8.93894
vt 414.661 5.11811
vt 380.746 5.11811
f 67/121/20 66/122/21 73/123/21 72/124/20 

vt 411.926 0
vt 445.842 0
vn 0.657663 0 0.753312
v 6.25072 0.13 -9.58535
vt 445.842 5.11811
vt 411.926 5.11811
f 66/125/21 64/126/22 74/127/22 73/128/21 

vt 413.879 0
vt 447.795 0
vn 0.440282 0 0.89786
v 6.96806 0.13 -10.0623
vt 447.795 5.11811
vt 413.879 5.11811
f 64/129/22 62/130/23 75/131/23 74/132/22 

vt 386.472 0
vt 420.387 0
vn 0.192897 -1.35465e-30 0.981219
v 7.78442 0.13 -10.3374
vt 420.387 5.11811
vt 386.472 5.11811
f 62/133/23 60/134/24 76/135/24 75/136/23 

vt 331.571 -1.03902e-27
vt 348.529 -1.11022e-16
vn 0.0631716 -2.68612e-30 0.998003
v 8.21428 0.13 -10.3646
vt 348.529 5.11811
vt 331.571 5.11811
f 60/137/24 59/138/25 77/139/25 76/140/24 

vt 36.6152 8.45603e-14
vn -0.595757 1.6249e-16 0.803165
vt 16.6386 5.11811
vt 16.6386 8.44493e-14
f 58/141/26 77/142/26 59/143/26

vt 512.222 95.6262
vn 0.159489 0.966589 0.200669
v 8.66668 0.13 -10.7242
vt 529.818 115.593
vt 507.067 115.593
f 58/144/27 78/145/27 77/146/27

vt -51.2894 501.816
vn -0.185112 0.966589 0.177309
v 9.06641 0.13 -10.3069
vt -46.1338 521.783
vt -68.8849 521.783
f 58/147/28 79/148/28 78/149/28

vt 508.314 5.11811
vn 0.481912 0 0.87622
vt 488.337 0
vt 508.314 -1.11022e-16
f 79/150/29 58/151/29 56/152/29

vt 269.876 -1.11022e-16
vn -0.197283 3.55625e-30 0.980347
vt 286.834 1.66513e-27
vn -0.323556 1.79347e-30 0.946209
v 9.48867 0.13 -10.2219
vt 286.834 5.11811
vt 269.876 5.11811
f 56/153/30 55/154/31 80/155/31 79/156/30 

vt 155.874 0
vt 189.79 0
vn -0.557428 0 0.830225
v 10.2604 0.13 -9.83915
vt 189.79 5.11811
vt 155.874 5.11811
f 55/157/31 53/158/32 81/159/32 80/160/31 

vt 47.052 0
vt 80.9674 0
vn -0.753312 0 0.657663
v 10.9068 0.13 -9.26971
vt 80.9674 5.11811
vt 47.052 5.11811
f 53/161/32 51/162/33 82/163/33 81/164/32 

vt -66.1325 0
vt -32.2171 0
vn -0.89786 0 0.440282
v 11.3838 0.13 -8.55237
vt -32.2171 5.11811
vt -66.1325 5.11811
f 51/165/33 49/166/34 83/167/34 82/168/33 

vt -175.966 0
vt -142.05 0
vn -0.981219 1.44125e-31 0.192897
v 11.6589 0.13 -7.73602
vt -142.05 5.11811
vt -175.966 5.11811
f 49/169/34 48/170/35 84/171/35 83/172/34 

vt -274.963 1.36415e-28
vt -258.005 -1.11022e-16
vn -0.998003 2.85783e-31 0.0631716
v 11.6861 0.13 -7.30615
vt -258.005 5.11811
vt -274.963 5.11811
f 48/173/35 1/174/36 85/175/36 84/176/35 

vt -485.147 0
vn -0.803165 0 -0.595757
vt -505.123 5.11811
vt -505.123 -1.11022e-16
f 3/177/37 85/178/37 1/179/37

vt 66.2364 502.483
vn -0.200669 0.966589 0.159489
vt 83.8319 522.45
vt 61.0808 522.45
f 3/180/38 45/181/38 85/182/38

vt -511.532 110.074
vn -0.177309 0.966589 -0.185112
v 11.6283 0.13 -6.45403
vt -506.376 130.041
vt -529.128 130.041
f 3/183/39 86/184/39 45/185/39

vt -2.0198 5.11811
vn -0.87622 0 0.481912
vt -21.9963 0
vt -2.0198 -1.11022e-16
f 86/186/40 3/187/40 2/188/40

vt -339.42 -1.11022e-16
vn -0.980347 7.99126e-30 -0.197283
vt -322.462 3.18598e-27
vn -0.946209 4.03011e-30 -0.323556
v 11.5434 0.13 -6.03177
vt -322.462 5.11811
vt -339.42 5.11811
f 2/189/41 5/190/42 87/191/42 86/192/41 

vt -414.661 0
vt -380.746 0
vn -0.830225 0 -0.557428
v 11.1606 0.13 -5.26001
vt -380.746 5.11811
vt -414.661 5.11811
f 5/193/42 7/194/43 88/195/43 87/196/42 

vt -445.842 0
vt -411.926 0
vn -0.657663 0 -0.753312
v 10.5912 0.13 -4.61361
vt -411.926 5.11811
vt -445.842 5.11811
f 7/197/43 9/198/44 89/199/44 88/200/43 

vt -447.795 0
vt -413.879 0
vn -0.440282 0 -0.89786
v 9.87385 0.13 -4.13661
vt -413.879 5.11811
vt -447.795 5.11811
f 9/201/44 11/202/45 90/203/45 89/204/44 

vt -420.387 0
vt -386.472 0
vn -0.192897 -2.27692e-30 -0.981219
v 9.0575 0.13 -3.86153
vt -386.472 5.11811
vt -420.387 5.11811
f 11/205/45 13/206/46 91/207/46 90/208/45 

vt -365.486 5.83317e-28
vt -348.529 -1.11022e-16
vn -0.0631716 -4.51489e-30 -0.998003
v 8.62764 0.13 -3.83432
vt -348.529 5.11811
vt -365.486 5.11811
f 13/209/46 14/210/47 92/211/47 91/212/46 

vt -162.901 -1.05276e-13
vn 0.595757 3.2498e-16 -0.803165
vt -182.878 5.11811
vt -182.878 -1.05276e-13
f 15/213/48 92/214/48 14/215/48

vt -354.684 71.398
vn -0.159489 0.966589 -0.200669
vt -337.089 91.3649
vt -359.84 91.3649
f 15/216/49 38/217/49 92/218/49

vt -106.249 -334.792
vn 0.185112 0.966589 -0.177309
v 7.77551 0.13 -3.89209
vt -101.093 -314.825
vt -123.845 -314.825
f 15/219/50 93/220/50 38/221/50

vt -342.075 5.11811
vn -0.481912 2.97885e-16 -0.87622
vt -362.051 3.83877e-15
vt -342.075 3.83877e-15
f 93/222/51 15/223/51 17/224/51

vt -269.876 -1.11022e-16
vn 0.197283 2.29987e-31 -0.980347
vt -252.918 -4.84382e-29
vn 0.323556 1.15986e-31 -0.946209
v 7.35325 0.13 -3.97706
vt -252.918 5.11811
vt -269.876 5.11811
f 17/225/52 18/226/53 94/227/53 93/228/52 

vt -189.79 0
vt -155.874 0
vn 0.557428 0 -0.830225
v 6.58149 0.13 -4.3598
vt -155.874 5.11811
vt -189.79 5.11811
f 18/229/53 20/230/54 95/231/54 94/232/53 

vt -80.9674 0
vt -47.052 0
vn 0.753312 0 -0.657663
v 5.93509 0.13 -4.92924
vt -47.052 5.11811
vt -80.9674 5.11811
f 20/233/54 22/234/55 96/235/55 95/236/54 

vt 32.2171 0
vt 66.1325 0
vn 0.89786 0 -0.440282
v 5.45809 0.13 -5.64658
vt 66.1325 5.11811
vt 32.2171 5.11811
f 22/237/55 24/238/56 97/239/56 96/240/55 

vt 142.05 0
vt 175.966 0
vn 0.981219 0 -0.192897
v 5.18302 0.13 -6.46293
vt 175.966 5.11811
vt 142.05 5.11811
f 24/241/56 25/242/57 98/243/57 97/244/56 

vt 241.047 0
vt 258.005 -1.11022e-16
vn 0.998003 0 -0.0631716
vt 258.005 5.11811
vt 241.047 5.11811
f 25/245/57 27/246/58 70/247/58 98/248/57 

vt 285.255 144.168
vn 0 1 -0
vt 321.86 136.802
vt 306.122 153.232
vt 289.498 156.577
vt 259.114 171.646
vt 233.665 194.065
vt 214.886 222.306
vt 204.056 254.446
vt 202.984 271.37
vt 188.829 289.181
vt 191.187 251.916
vt 203.111 216.532
vt 223.786 185.44
vt 251.803 160.758
f 37/249/59 38/250/59 93/251/59 94/252/59 95/253/59 96/254/59 97/255/59 98/256/59 70/257/59 33/258/59 32/259/59 34/260/59 35/261/59 36/262/59 

vt 466.873 233.228
vt 474.239 269.833
vt 457.809 254.096
vt 454.463 237.471
vt 439.395 207.087
vt 416.976 181.638
vt 388.734 162.859
vt 356.595 152.029
vt 339.671 150.958
vt 359.124 139.161
vt 394.509 151.084
vt 425.601 171.759
vt 450.283 199.777
f 43/263/59 45/264/59 86/265/59 87/266/59 88/267/59 89/268/59 90/269/59 91/270/59 92/271/59 38/250/59 39/272/59 40/273/59 41/274/59 42/275/59 

vt 459.012 304.568
vt 460.083 287.644
v 11.9858 0.13 -7.80028
vt 471.88 307.097
v 11.6829 0.13 -8.69903
vt 459.957 342.482
v 11.1578 0.13 -9.48878
vt 439.282 373.574
v 10.4461 0.13 -10.1157
vt 411.264 398.256
v 9.59645 0.13 -10.5371
vt 377.813 414.846
vt 341.208 422.212
vt 356.945 405.782
vt 373.57 402.437
vt 403.954 387.368
vt 429.403 364.949
vt 448.182 336.708
f 84/276/59 85/277/59 45/264/59 99/278/59 100/279/59 101/280/59 102/281/59 103/282/59 78/283/59 79/284/59 80/285/59 81/286/59 82/287/59 83/288/59 

vt 238.735 -329.454
vt 277.276 -329.454
vn 0.729415 0.668874 -0.143395
vt 276.675 -322.595
vt 239.336 -322.595
f 44/289/14 46/290/60 99/291/60 45/292/14 

vt 139.737 -366.001
vt 178.279 -366.001
vn 0.667447 0.668874 -0.327295
vt 177.678 -359.142
vt 140.339 -359.142
f 46/293/60 47/294/61 100/295/61 99/296/60 

vt 29.9042 -384.246
vt 68.4454 -384.246
vn 0.559994 0.668874 -0.488891
vt 67.8443 -377.387
vt 30.5053 -377.387
f 47/297/61 50/298/62 101/299/62 100/300/61 

vt -83.2803 -382.946
vt -44.7391 -382.946
vn 0.414379 0.668874 -0.61717
vt -45.3402 -376.087
vt -82.6792 -376.087
f 50/301/62 52/302/63 102/303/63 101/304/62 

vt -192.103 -362.189
vt -153.561 -362.189
vn 0.240524 0.668874 -0.703389
vt -154.162 -355.33
vt -191.501 -355.33
f 52/305/63 54/306/64 103/307/64 102/308/63 

vt -289.147 -323.39
vt -250.605 -323.39
vn 0.0502778 0.668874 -0.741674
vt -251.207 -316.531
vt -288.546 -316.531
f 54/309/64 57/310/65 78/311/65 103/312/64 

vt -367.799 -269.193
vt -329.258 -269.193
vn -0.143395 0.668874 -0.729415
v 7.72016 0.13 -10.6643
vt -329.859 -262.334
vt -367.198 -262.334
f 57/313/65 61/314/66 104/315/66 78/316/65 

vt -422.7 -203.291
vt -384.159 -203.291
vn -0.327295 0.668874 -0.667447
v 6.8214 0.13 -10.3614
vt -384.76 -196.433
vt -422.099 -196.433
f 61/317/66 63/318/67 105/319/67 104/320/66 

vt -450.108 -130.176
vt -411.567 -130.176
vn -0.488891 0.668874 -0.559994
v 6.03165 0.13 -9.83628
vt -412.168 -123.317
vt -449.507 -123.317
f 63/321/67 65/322/68 106/323/68 105/324/67 

vt -448.155 -54.8298
vt -409.613 -54.8298
vn -0.61717 0.668874 -0.414379
v 5.40473 0.13 -9.12463
vt -410.215 -47.9712
vt -447.554 -47.9712
f 65/325/68 28/326/69 107/327/69 106/328/68 

vt -416.974 17.6124
vt -378.433 17.6124
vn -0.703389 0.668874 -0.240524
v 4.98335 0.13 -8.27497
vt -379.034 24.4711
vt -416.373 24.4711
f 28/329/69 29/330/70 108/331/70 107/332/69 

vt -358.69 82.214
vt -320.149 82.214
vt -320.75 89.0726
vt -358.089 89.0726
f 29/333/70 31/334/2 33/335/2 108/336/70 

vt 196.195 325.786
vt 205.259 304.918
vt 208.604 321.543
vt 223.673 351.927
vt 246.092 377.376
vt 274.333 396.155
vt 306.473 406.985
vt 323.397 408.056
vt 303.943 419.853
vt 268.559 407.93
vt 237.467 387.255
vt 212.785 359.237
f 108/337/59 33/258/59 71/338/59 72/339/59 73/340/59 74/341/59 75/342/59 76/343/59 77/344/59 78/283/59 104/345/59 105/346/59 106/347/59 107/348/59 

